<?xml version="1.0" encoding="UTF-8"?>
<svg width="210mm" height="210mm" version="1.1" viewBox="0 0 210 210" xmlns="http://www.w3.org/2000/svg">
<g stroke-width="4.2">
<rect width="210" height="210" rx="42" fill="#2cb1bc"/>
<path d="m109.22 40.162h24.609v82.687c0 7.6016-1.6955 14.328-5.0862 20.18-3.3356 5.7968-8.0661 10.281-14.191 13.453-6.1248 3.1718-13.043 4.7578-20.754 4.7578-12.633 0-22.476-3.1991-29.531-9.5974-7.0547-6.4533-10.582-15.559-10.582-27.316h24.774c0 5.8514 1.2302 10.172 3.6913 12.961 2.4608 2.7892 6.3437 4.1836 11.648 4.1836 4.7032 0 8.4496-1.6132 11.238-4.8401 2.7892-3.2264 4.1836-7.82 4.1836-13.781z" fill="#fff"/>
</g>
</svg>
